<svg width="164" height="92" viewBox="0 0 164 92" fill="none" xmlns="http://www.w3.org/2000/svg">
<path d="M155.064 68.6632C154.136 68.6632 153.39 67.9045 153.403 66.9757C153.403 66.0469 154.162 65.3013 155.09 65.3144C156.019 65.3144 156.765 66.0731 156.752 67.0019C156.752 67.9175 155.993 68.6632 155.064 68.6632ZM155.077 65.5106C154.266 65.5106 153.612 66.1647 153.599 66.9757C153.599 67.7867 154.253 68.4539 155.064 68.4539C155.875 68.4539 156.542 67.7998 156.542 66.9888C156.556 66.1777 155.888 65.5237 155.077 65.5106Z" fill="black"/>
<path d="M154.58 67.028H155.064C155.417 67.028 155.443 67.1065 155.483 67.5513C155.496 67.6952 155.509 67.826 155.548 67.9568H155.744C155.666 67.8391 155.679 67.6952 155.653 67.3812C155.627 67.1588 155.574 66.9888 155.326 66.9495V66.9365C155.548 66.8841 155.705 66.7402 155.705 66.5179C155.705 66.3347 155.64 66.1908 155.509 66.1123C155.365 66.0208 155.221 66.0077 155.051 66.0077H154.41L154.397 67.9568H154.58V67.028ZM154.58 66.871V66.1777H154.973C155.156 66.1777 155.509 66.1516 155.509 66.5309C155.509 66.858 155.195 66.871 154.959 66.871H154.58Z" fill="black"/>
<path d="M124.991 31.0547C125.174 31.0286 130.328 30.2306 135.443 29.4458L143.448 28.2161C140.322 26.9342 135.246 25.1682 128.483 23.8732C127.136 26.3324 125.527 29.1841 124.428 31.1332L124.991 31.0547Z" fill="black"/>
<path d="M33.7627 23.363V23.3757H33.7753L33.7627 23.363Z" fill="black"/>
<path d="M18.2876 28.8309L52.8612 33.7495L52.4949 32.8992C52.2333 32.2713 52.0109 31.6041 51.8539 30.9108C44.1753 29.7989 38.9036 29.0402 38.7466 29.0141C38.6158 29.001 35.6725 28.517 33.501 23.8601C26.7904 24.7234 21.5579 27.0257 18.2876 28.8309Z" fill="black"/>
<path d="M33.6189 22.9313C44.0316 14.5986 60.2915 10.3472 81.9016 10.3472C112.59 10.3472 124.062 19.4386 128.418 22.9313C135.548 24.2787 140.845 26.1493 144.037 27.4705L142.899 26.1362C141.866 24.9066 140.597 23.69 139.119 22.5389C127.529 13.5129 105.238 7.97952 80.9597 8.11033C56.668 8.24114 34.443 14.0099 22.9578 23.1537C21.4796 24.331 20.2107 25.5737 19.1773 26.8295C19.1511 26.8557 19.138 26.8818 19.1119 26.908L18.4971 27.6667C21.9113 25.8615 27.0914 23.7162 33.6189 22.9313Z" fill="black"/>
<path d="M128.235 23.3368V23.363L128.248 23.3761L128.261 23.2976L128.235 23.3368Z" fill="black"/>
<path d="M34.3511 23.52C36.3133 27.6929 38.851 28.1115 38.8772 28.1115C39.0211 28.1376 44.1489 28.8702 51.6575 29.9559L51.6313 29.7597C51.5398 29.0925 51.5005 28.4123 51.5136 27.7321L51.5267 27.2743L49.1721 26.9342C48.0209 26.7772 46.8698 26.6071 45.7317 26.4501L42.0821 25.9269L41.6504 25.8877C41.6896 25.8092 41.755 25.7045 41.8466 25.613L41.9251 25.5214C42.1605 25.2728 42.6576 24.7496 43.3379 24.1871C44.2535 23.4415 45.4701 22.6304 45.7055 22.4735C49.8784 19.7264 55.0324 17.5811 61.0498 16.1029C61.1937 16.0637 75.7923 11.8908 94.9039 14.7425C101.562 15.7367 107.187 17.3587 112.093 19.7264C117.927 22.5258 121.76 25.9661 123.499 29.9559L123.722 30.4792C124.807 28.5562 126.338 25.8353 127.633 23.4807C123.172 19.9096 111.766 11.2367 81.875 11.2367C60.6443 11.2629 44.6591 15.3965 34.3511 23.52Z" fill="black"/>
<path d="M80.3052 19.2817C77.7674 19.2817 75.7006 21.3354 75.6875 23.8732V45.3656C75.6875 47.9164 77.7543 49.9701 80.2921 49.9701C82.8429 49.9701 84.8836 47.9033 84.8836 45.3656V23.8732C84.8966 21.3354 82.8429 19.2817 80.3052 19.2817Z" fill="black"/>
<path d="M69.4613 48.9629C67.2767 50.2187 64.9483 50.4934 62.4759 50.5588C58.6301 50.3626 54.5749 48.5966 53.0836 44.5676C52.5473 42.8278 52.9005 40.8395 54.0124 39.5313C54.915 38.4325 56.2755 38.0532 57.6621 38.1709C59.5327 38.3148 60.9454 40.0546 62.4367 41.1534C62.8422 41.2711 63.1823 41.5066 63.6402 41.3496C63.9541 41.2057 64.1503 40.8918 64.2811 40.5648C64.4119 40.0677 64.2288 39.636 64.0195 39.2566C61.4556 37.3206 57.9368 37.3729 55.6999 34.6651C53.8816 32.4413 53.2668 29.3673 53.7246 26.424C54.5226 22.4604 57.9368 19.4779 61.351 18.9023C63.0777 18.6145 64.7651 18.4575 66.4919 18.8238C69.5529 19.4648 72.5615 21.6232 72.8232 24.9458C72.9016 26.6856 72.3653 28.4516 70.9264 29.171C68.4148 30.5053 66.3349 28.3077 64.425 26.9996C63.9149 26.6856 63.2477 26.7641 62.8553 27.235C62.0573 28.8178 64.3073 29.4065 65.3407 29.8251C66.6096 30.3222 67.8654 30.8454 69.0427 31.5387C71.3973 32.9123 73.0717 34.9529 73.7519 37.6215C74.6938 42.0168 73.0325 46.6475 69.4613 48.9629Z" fill="black"/>
<path d="M99.9665 31.4079C99.7965 31.8135 99.4171 32.219 99.077 32.3629H96.8009V28.9225C97.9651 29.1449 99.5349 28.3731 99.9665 29.9559C100.176 30.4138 100.176 30.9632 99.9665 31.4079ZM108.613 32.8992C109.359 29.0795 108.325 25.2598 105.814 22.5781C102.557 18.6407 97.1672 19.5433 92.3664 19.4517C91.4638 19.5695 90.5481 19.6218 89.8025 20.0927C88.442 20.786 87.5917 22.4081 87.4217 23.9647L87.3955 38.2494C87.3955 40.0677 87.4086 41.8729 87.4217 43.6912C87.4217 44.8292 87.317 45.9935 87.8272 47.04C88.5074 48.4135 89.9202 49.5385 91.4507 49.787C92.8373 50.0225 94.1454 49.6431 95.1527 48.7144C97.1541 47.1839 96.7486 44.3191 96.9971 41.8336C98.6846 44.3191 99.7442 47.4978 102.36 49.2638C103.512 49.9832 105.238 49.9832 106.442 49.4077C107.24 49.0021 107.828 48.335 108.312 47.524C110.366 43.9659 107.109 41.1011 105.801 38.2756C107.279 36.7712 108.182 34.9268 108.613 32.8992Z" fill="black"/>
<path d="M92.5362 69.5004C91.9868 69.1602 91.1235 68.8725 90.1947 68.7416L88.5988 68.5193C87.4869 68.3623 87.0945 68.1399 87.0945 67.6951C87.0945 67.1196 87.6962 66.7925 88.7427 66.7925C90.077 66.7925 90.5479 67.1196 90.888 68.3361L93.3865 67.7998C93.2034 67.1327 93.0464 66.8318 92.6147 66.4263C91.7906 65.6414 90.4825 65.2097 88.952 65.2097C87.8793 65.2097 86.8983 65.4059 86.1134 65.7853C85.2108 66.217 84.5698 67.0934 84.5698 67.9044C84.5698 69.2126 85.6686 70.0236 87.7878 70.3114L89.5799 70.5468C90.4825 70.6515 90.9273 70.9393 90.9273 71.384C90.9273 71.9073 90.3255 72.1558 89.109 72.1558C87.6962 72.1558 86.9898 71.698 86.7805 70.6515L84.2559 71.1878C84.5436 72.1297 84.9622 72.6791 85.7471 73.1762C86.5189 73.6602 87.2907 73.8041 89.0959 73.8041C90.6918 73.8041 91.5421 73.634 92.34 73.1631C93.0333 72.7576 93.5173 71.9727 93.5173 71.2271C93.4912 70.5599 93.0987 69.8535 92.5362 69.5004Z" fill="black"/>
<path d="M100.555 68.5193C100.333 68.8855 100.28 68.9771 100.11 69.3303H100.071C99.9009 68.9771 99.8617 68.8855 99.6393 68.5062L97.7818 65.3667H94.9824L98.8545 71.2401V73.6209H101.261V71.3056L105.199 65.3667H102.504L100.555 68.5193Z" fill="black"/>
<path d="M114.813 69.5004C114.277 69.1602 113.388 68.8725 112.472 68.7416L110.876 68.5193C109.764 68.3623 109.372 68.1399 109.372 67.6951C109.372 67.1196 109.973 66.7925 111.02 66.7925C112.367 66.7925 112.825 67.1196 113.165 68.3361L115.664 67.7998C115.481 67.1327 115.324 66.8318 114.892 66.4263C114.055 65.6414 112.747 65.2097 111.216 65.2097C110.144 65.2097 109.162 65.4059 108.378 65.7853C107.475 66.217 106.834 67.0934 106.834 67.9044C106.834 69.2126 107.933 70.0236 110.052 70.3114L111.844 70.5468C112.747 70.6515 113.191 70.9393 113.191 71.384C113.191 71.9073 112.59 72.1558 111.373 72.1558C109.96 72.1558 109.254 71.698 109.045 70.6515L106.52 71.1878C106.808 72.1297 107.226 72.6791 108.024 73.1762C108.783 73.6602 109.568 73.8041 111.373 73.8041C112.969 73.8041 113.819 73.634 114.617 73.1631C115.311 72.7576 115.781 71.9727 115.781 71.2271C115.768 70.5599 115.376 69.8535 114.813 69.5004Z" fill="black"/>
<path d="M118.097 67.185H121.001C121.132 67.185 121.171 67.1719 121.288 67.1457C121.249 67.2635 121.236 67.3027 121.236 67.4335V73.634H123.552V67.4335C123.552 67.3027 123.538 67.2765 123.512 67.1457C123.643 67.185 123.669 67.185 123.8 67.185H126.691V65.3798H118.097V67.185V67.185Z" fill="black"/>
<path d="M131.793 71.8942C131.832 71.7765 131.845 71.7242 131.845 71.6064V70.1021H136.685V68.323H132.081C131.95 68.323 131.91 68.3361 131.793 68.3623C131.832 68.2446 131.845 68.1922 131.845 68.0745V67.1457H137.627V65.3667H129.517V73.6209H137.653V71.8419H132.081C131.937 71.855 131.91 71.855 131.793 71.8942Z" fill="black"/>
<path d="M148.131 65.3667L146.836 68.5978C146.575 69.2257 146.522 69.3826 146.326 69.9974L146.287 70.0105C146.104 69.3957 146.038 69.2387 145.79 68.5978L144.495 65.3536L140.74 65.3275L140.701 73.5817L143.017 73.5948L143.043 69.4219C143.043 68.4277 143.043 68.1661 142.977 67.2242L143.043 67.2111C143.33 68.1138 143.435 68.3623 143.788 69.278L145.554 73.5948L147.032 73.6079L148.89 69.0687C149.269 68.1268 149.361 67.8914 149.662 67.0019L149.727 67.0149C149.662 67.9568 149.636 68.2053 149.636 69.2257L149.609 73.6209L151.925 73.634L151.964 65.3798L148.131 65.3667Z" fill="black"/>
<path d="M16.7309 69.5004C16.1815 69.1602 15.3181 68.8725 14.3893 68.7416L12.7934 68.5193C11.6815 68.3623 11.2891 68.1399 11.2891 67.6951C11.2891 67.1196 11.8908 66.7925 12.9373 66.7925C14.2847 66.7925 14.7425 67.1196 15.0696 68.3361L17.5681 67.7998C17.3849 67.1327 17.228 66.8318 16.7963 66.4263C15.9591 65.6414 14.664 65.2097 13.1335 65.2097C12.0609 65.2097 11.0798 65.4059 10.2949 65.7853C9.40541 66.217 8.75135 67.0934 8.75135 67.9044C8.75135 69.2126 9.85017 70.0236 11.9693 70.3114L13.7745 70.5468C14.6771 70.6515 15.1088 70.9393 15.1088 71.384C15.1088 71.9073 14.5071 72.1558 13.2905 72.1558C11.8778 72.1558 11.1714 71.698 10.9621 70.6515L8.42432 71.1878C8.7121 72.1297 9.1307 72.6791 9.91557 73.1762C10.6874 73.6602 11.4592 73.8041 13.2644 73.8041C14.8603 73.8041 15.7105 73.634 16.4954 73.1631C17.2018 72.7576 17.6727 71.9727 17.6727 71.2271C17.6727 70.5599 17.2934 69.8535 16.7309 69.5004Z" fill="black"/>
<path d="M23.376 65.3667L19.7002 73.6209H22.2379L22.9051 71.9858H26.5547L27.2219 73.6209H29.7727L26.1361 65.3667H23.376ZM25.2074 70.4814H24.2524C23.8731 70.4814 23.7946 70.4814 23.4676 70.5076C23.6246 70.2198 23.6507 70.1544 23.8077 69.8012L24.2132 68.7809C24.4617 68.1661 24.5272 68.0091 24.7103 67.3943H24.7626C24.9588 68.0091 25.0112 68.1661 25.2597 68.7809L25.6783 69.8012C25.8222 70.1413 25.8484 70.2198 26.0053 70.5076C25.6652 70.4814 25.5867 70.4814 25.2074 70.4814Z" fill="black"/>
<path d="M32.4805 73.6209H34.7958V70.2852C34.7958 70.1544 34.7828 70.1152 34.7566 69.9974C34.8743 70.0236 34.9136 70.0367 35.0444 70.0367H39.5051V68.2838H35.0444C34.9136 68.2838 34.8743 68.2838 34.7566 68.3361C34.7958 68.2184 34.7958 68.1792 34.7958 68.0483V67.3681C34.7958 67.2373 34.7828 67.1981 34.7566 67.0803C34.8743 67.1065 34.9136 67.1196 35.0444 67.1196H40.303V65.3667H32.4805V73.6209V73.6209Z" fill="black"/>
<path d="M45.6924 71.8942C45.7317 71.7765 45.7317 71.7242 45.7317 71.6064V70.1021H50.5717V68.323H45.9671C45.8363 68.323 45.7971 68.3361 45.6793 68.3623C45.7186 68.2446 45.7186 68.1922 45.7186 68.0745V67.1457H51.5005V65.3667H43.3901V73.6209H51.5266V71.8419H45.9541C45.8494 71.855 45.8232 71.855 45.6924 71.8942Z" fill="black"/>
<path d="M71.2011 68.5193C70.9787 68.8855 70.9264 68.9771 70.7563 69.3303H70.7302C70.5601 68.9771 70.5209 68.8855 70.2985 68.5062L68.441 65.3667H65.6416L69.5136 71.2401V73.6209H71.9206V71.3056L75.858 65.3667H73.1633L71.2011 68.5193Z" fill="black"/>
<path d="M60.1213 65.3667H57.7797H54.6533V67.1719H57.5573C57.662 67.1719 57.7012 67.1588 57.7797 67.1457V73.6078H57.8059H60.1213V67.4074V67.1327C60.2128 67.1588 60.2521 67.1719 60.3698 67.1719H63.2477V65.3667H60.1213Z" fill="black"/>
<path d="M124.01 83.1309C123.905 83.1179 123.826 83.0786 123.774 83.0132C123.722 82.9478 123.709 82.8562 123.709 82.7385V82.4638C123.709 82.1368 123.643 81.8621 123.499 81.6397C123.356 81.4173 123.133 81.2603 122.806 81.1688C123.094 81.0379 123.303 80.881 123.447 80.6848C123.591 80.4885 123.669 80.24 123.669 79.9653C123.669 79.4682 123.499 79.0758 123.146 78.788C122.793 78.5002 122.309 78.3694 121.694 78.3694H119.824H119.248V79.0234L119.824 79.1412V83.0525L119.248 83.1702V83.8242H121.498V83.1702L120.909 83.0525V81.6135H121.799C122.06 81.6266 122.257 81.7051 122.401 81.849C122.544 82.006 122.61 82.2022 122.61 82.4769V82.7908C122.61 83.0917 122.688 83.3402 122.832 83.5365C122.976 83.7327 123.225 83.8242 123.578 83.8242H124.14V83.1702L124.01 83.1309ZM122.348 80.567C122.191 80.6978 121.969 80.7632 121.668 80.7632H120.909V79.2066H121.681C121.969 79.2066 122.191 79.2851 122.348 79.429C122.505 79.5729 122.571 79.7691 122.571 80.0176C122.584 80.2531 122.505 80.4362 122.348 80.567Z" fill="black"/>
<path d="M116.737 79.0758C116.279 78.5526 115.677 78.2909 114.945 78.2909C114.212 78.2909 113.61 78.5526 113.166 79.0758C112.721 79.599 112.485 80.2531 112.485 81.0511V81.1295C112.485 81.9275 112.708 82.5815 113.166 83.1048C113.623 83.628 114.212 83.8897 114.945 83.8897C115.677 83.8897 116.279 83.628 116.737 83.1048C117.195 82.5815 117.417 81.9275 117.417 81.1295V81.0511C117.43 80.2531 117.195 79.599 116.737 79.0758ZM116.344 81.1295C116.344 81.7051 116.227 82.163 115.991 82.5161C115.756 82.8693 115.416 83.0394 114.958 83.0394C114.5 83.0394 114.16 82.8693 113.937 82.5161C113.715 82.163 113.597 81.7051 113.597 81.1295V81.038C113.597 80.4755 113.715 80.0176 113.937 79.6645C114.16 79.3113 114.5 79.1412 114.958 79.1412C115.416 79.1412 115.756 79.3113 115.991 79.6645C116.227 80.0176 116.344 80.4755 116.344 81.038V81.1295Z" fill="black"/>
<path d="M105.866 78.3694V79.8214H106.703L106.743 79.2066H107.75V83.0394L107.161 83.1571V83.8112H109.424V83.1571L108.836 83.0394V79.2066H109.843L109.882 79.8214H110.719V78.3694H105.866Z" fill="black"/>
<path d="M104.048 79.1281C103.825 78.8796 103.551 78.6703 103.21 78.5264C102.87 78.3694 102.491 78.2909 102.072 78.2909C101.34 78.2909 100.738 78.5395 100.28 79.0496C99.8224 79.5598 99.5869 80.2008 99.5869 80.9987V81.1819C99.5869 81.9798 99.8224 82.6208 100.28 83.131C100.751 83.6411 101.34 83.8897 102.072 83.8897C102.491 83.8897 102.87 83.8112 103.21 83.6673C103.551 83.5103 103.825 83.3141 104.048 83.0656V81.9929H103.237L103.119 82.7124C103.027 82.817 102.883 82.9086 102.7 82.9609C102.517 83.0263 102.321 83.0525 102.112 83.0525C101.654 83.0525 101.287 82.8824 101.039 82.5292C100.79 82.1891 100.66 81.7313 100.66 81.1819V80.9856C100.66 80.4362 100.79 79.9784 101.039 79.6383C101.301 79.2982 101.654 79.1281 102.138 79.1281C102.36 79.1281 102.556 79.1543 102.713 79.2197C102.87 79.2851 103.014 79.3636 103.119 79.4682L103.237 80.1877H104.048V79.1281V79.1281Z" fill="black"/>
<path d="M96.8401 80.5801H94.9957V79.2066H96.7355L96.7878 79.8606H97.625V78.3694H93.8969H93.3213V79.0234L93.8969 79.1412V83.0394L93.3213 83.1571V83.8112H97.625V82.3199H96.8009L96.7486 82.974H94.9957V81.4173H96.8401V80.5801Z" fill="black"/>
<path d="M86.7412 78.3694V79.8214H87.5784L87.6177 79.2066H88.6118V83.0394L88.0363 83.1571V83.8112H90.2862V83.1571L89.7106 83.0394V79.2066H90.7048L90.7571 79.8214H91.5943V78.3694H86.7412Z" fill="black"/>
<path d="M84.2953 79.0758C83.8375 78.5526 83.2358 78.2909 82.5032 78.2909C81.7707 78.2909 81.1689 78.5526 80.7242 79.0758C80.2794 79.599 80.0439 80.2531 80.0439 81.0511V81.1295C80.0439 81.9275 80.2663 82.5815 80.7242 83.1048C81.182 83.628 81.7707 83.8897 82.5032 83.8897C83.2358 83.8897 83.8375 83.628 84.2953 83.1048C84.7532 82.5815 84.9756 81.9275 84.9756 81.1295V81.0511C84.9886 80.2531 84.7532 79.599 84.2953 79.0758ZM83.9029 81.1295C83.9029 81.7051 83.7852 82.163 83.5497 82.5161C83.3142 82.8693 82.9741 83.0394 82.5163 83.0394C82.0585 83.0394 81.7183 82.8693 81.496 82.5161C81.2736 82.163 81.1559 81.7051 81.1559 81.1295V81.038C81.1559 80.4755 81.2736 80.0176 81.496 79.6645C81.7183 79.3113 82.0585 79.1412 82.5163 79.1412C82.9741 79.1412 83.3273 79.3113 83.5497 79.6645C83.7852 80.0176 83.9029 80.4755 83.9029 81.038V81.1295Z" fill="black"/>
<path d="M78.1341 83.1309C78.0295 83.1179 77.951 83.0786 77.8986 83.0132C77.8463 82.9478 77.8332 82.8562 77.8332 82.7385V82.4638C77.8332 82.1368 77.7678 81.8621 77.6239 81.6397C77.48 81.4173 77.2577 81.2603 76.9306 81.1688C77.2184 81.0379 77.4277 80.881 77.5716 80.6848C77.7155 80.4885 77.794 80.24 77.794 79.9653C77.794 79.4682 77.6239 79.0758 77.2708 78.788C76.9176 78.5002 76.4336 78.3694 75.8187 78.3694H73.9481H73.3726V79.0234L73.9481 79.1412V83.0525L73.3726 83.1702V83.8242H75.6225V83.1702L75.0339 83.0525V81.6135H75.9234C76.185 81.6266 76.3812 81.7051 76.5251 81.849C76.669 82.006 76.7344 82.2022 76.7344 82.4769V82.7908C76.7344 83.0917 76.8129 83.3402 76.9568 83.5365C77.1007 83.7327 77.3492 83.8242 77.7024 83.8242H78.2649V83.1702L78.1341 83.1309ZM76.4859 80.567C76.3289 80.6978 76.1065 80.7632 75.8057 80.7632H75.0469V79.2066H75.8187C76.1065 79.2066 76.3289 79.2851 76.4859 79.429C76.6429 79.5729 76.7083 79.7691 76.7083 80.0176C76.7083 80.2531 76.6298 80.4362 76.4859 80.567Z" fill="black"/>
<path d="M71.1093 78.8403C70.743 78.5264 70.259 78.3563 69.6311 78.3563H67.6166H67.041V79.0104L67.6166 79.1281V83.0394L67.041 83.1571V83.8112H69.291V83.1571L68.7023 83.0394V81.8359H69.618C70.2459 81.8359 70.7299 81.6789 71.0962 81.365C71.4625 81.051 71.6325 80.6324 71.6325 80.1092C71.6456 79.586 71.4625 79.1674 71.1093 78.8403ZM70.3244 80.7502C70.1674 80.9202 69.945 80.9987 69.6311 80.9987H68.7154V79.2066H69.6311C69.932 79.2066 70.1674 79.2982 70.3244 79.4682C70.4814 79.6383 70.5599 79.8607 70.5599 80.1223C70.5599 80.3708 70.4814 80.5801 70.3244 80.7502Z" fill="black"/>
<path d="M61.9134 83.1309C61.8088 83.1179 61.7303 83.0786 61.6779 83.0132C61.6256 82.9478 61.6125 82.8562 61.6125 82.7385V82.4638C61.6125 82.1368 61.5471 81.8621 61.4032 81.6397C61.2593 81.4173 61.037 81.2603 60.7099 81.1688C60.9977 81.0379 61.207 80.881 61.3509 80.6848C61.4948 80.4885 61.5733 80.24 61.5733 79.9653C61.5733 79.4682 61.4032 79.0758 61.05 78.788C60.6969 78.5002 60.2129 78.3694 59.598 78.3694H57.7274H57.1519V79.0234L57.7274 79.1412V83.0525L57.1519 83.1702V83.8242H59.4018V83.1702L58.8132 83.0525V81.6135H59.7027C59.9643 81.6266 60.1605 81.7051 60.3044 81.849C60.4483 82.006 60.5137 82.2022 60.5137 82.4769V82.7908C60.5137 83.0917 60.5922 83.3402 60.7361 83.5365C60.88 83.7327 61.1285 83.8242 61.4817 83.8242H62.0442V83.1702L61.9134 83.1309ZM60.2521 80.567C60.0951 80.6978 59.8727 80.7632 59.5719 80.7632H58.8132V79.2066H59.585C59.8727 79.2066 60.1082 79.2851 60.2521 79.429C60.4091 79.5729 60.4745 79.7691 60.4745 80.0176C60.4876 80.2531 60.4091 80.4362 60.2521 80.567Z" fill="black"/>
<path d="M51.592 78.3694H50.5062H49.9307V79.0234L50.5062 79.1412V81.9798C50.5062 82.5946 50.7025 83.0655 51.108 83.3926C51.5135 83.7196 52.0367 83.8896 52.6777 83.8896C53.3318 83.8896 53.855 83.7196 54.2605 83.3926C54.6661 83.0655 54.8623 82.5946 54.8623 81.9798V79.1412L55.4509 79.0234V78.3694H53.201V79.0234L53.7765 79.1412V81.9798C53.7765 82.3461 53.685 82.6077 53.4887 82.7908C53.2925 82.974 53.0309 83.0525 52.6908 83.0525C52.3507 83.0525 52.0891 82.9609 51.8928 82.7908C51.6966 82.6077 51.6051 82.3461 51.6051 81.9798V79.1412L52.1937 79.0234V78.3694H51.592Z" fill="black"/>
<path d="M47.4848 79.0758C47.0269 78.5526 46.4252 78.2909 45.6927 78.2909C44.9601 78.2909 44.3584 78.5526 43.9136 79.0758C43.4689 79.599 43.2334 80.2531 43.2334 81.0511V81.1295C43.2334 81.9275 43.4558 82.5815 43.9136 83.1048C44.3715 83.628 44.9601 83.8897 45.6927 83.8897C46.4252 83.8897 47.0269 83.628 47.4848 83.1048C47.9426 82.5815 48.165 81.9275 48.165 81.1295V81.0511C48.1781 80.2531 47.9426 79.599 47.4848 79.0758ZM47.0793 81.1295C47.0793 81.7051 46.9615 82.163 46.7261 82.5161C46.4906 82.8693 46.1505 83.0394 45.6927 83.0394C45.2348 83.0394 44.8947 82.8693 44.6723 82.5161C44.45 82.163 44.3322 81.7051 44.3322 81.1295V81.038C44.3322 80.4755 44.45 80.0176 44.6723 79.6645C44.8947 79.3113 45.2348 79.1412 45.6927 79.1412C46.1505 79.1412 46.5037 79.3113 46.7261 79.6645C46.9615 80.0176 47.0793 80.4755 47.0793 81.038V81.1295Z" fill="black"/>
<path d="M38.5762 78.3694H36.5225V79.0234L36.9803 79.1019L38.4323 81.8359V83.0394L37.8567 83.1571V83.8112H40.1067V83.1571L39.5181 83.0394V81.8882L40.9962 79.1019L41.4672 79.0234V78.3694H39.4003V79.0234L39.8451 79.0888L39.0079 80.8679H38.9817L38.1314 79.0888L38.5762 79.0234V78.3694Z" fill="black"/>
<path d="M128.431 46.6868C124.18 50.101 113.126 58.8392 82.0189 58.8392C59.9902 58.8392 43.7172 54.7579 33.6054 46.6999C26.8948 45.4441 21.7408 43.5473 18.4443 42.0953L19.2946 43.1156C20.3149 44.3452 21.5969 45.5487 23.0751 46.7129C34.5342 55.6343 56.4321 61.1415 80.3838 61.1415C80.6716 61.1415 80.9463 61.1415 81.234 61.1415C105.526 61.0107 127.764 55.255 139.249 46.0981C140.727 44.9208 142.009 43.6781 143.043 42.4092L143.736 41.5459C140.387 43.2333 135.155 45.4179 128.431 46.6868Z" fill="black"/>
<path d="M33.7752 46.3074L33.7883 46.2681L33.7621 46.2551L33.749 46.3466L33.7752 46.3074Z" fill="black"/>
<path d="M37.2027 38.2102C37.0064 38.2363 30.5051 39.2436 24.7755 40.12L18.4312 41.088C21.5968 42.5139 26.7377 44.4499 33.5007 45.7449C34.7172 43.0502 36.3524 40.0415 37.3858 38.184L37.2027 38.2102Z" fill="black"/>
<path d="M143.88 40.4209L133.323 38.9165C130.289 38.4849 127.254 38.0532 124.219 37.6215L110.274 35.6462L110.104 35.9864C109.79 36.6535 109.411 37.2683 108.992 37.8439L108.705 38.2363C111.831 38.6942 113.95 38.995 114.552 39.0866C117.377 39.5837 122.806 40.5517 123.238 40.604C123.761 40.6694 126.403 41.2581 128.496 45.7449C135.443 44.3976 140.688 42.0953 143.88 40.4209Z" fill="black"/>
<path d="M127.672 46.1243C125.736 42.0037 123.394 41.5589 123.133 41.5197C122.583 41.4412 114.761 40.0546 114.434 39.9892C113.832 39.8976 111.857 39.6099 108.927 39.1913L110.81 41.9906L116.448 42.7886C117.665 42.9586 118.868 43.1287 120.098 43.3118L120.53 43.3511C120.49 43.4296 120.425 43.5342 120.333 43.6258L120.203 43.7566C119.941 44.0182 119.47 44.5153 118.829 45.0516C118.083 45.6534 117.129 46.3205 116.461 46.7653C112.288 49.5123 107.134 51.6576 101.117 53.1358C100.973 53.175 86.3877 57.3479 67.25 54.4962C60.6047 53.5152 54.9798 51.88 50.0613 49.5254C44.2271 46.726 40.3943 43.2857 38.6545 39.2828L38.2751 38.4195C37.2548 40.2247 35.5542 43.338 34.3115 46.0981C44.2532 53.9338 60.2908 57.9235 81.9794 57.9235C112.498 57.9235 123.46 49.4992 127.672 46.1243Z" fill="black"/>
</svg>
